<?xml version="1.0" encoding="iso-8859-1"?>
<!-- Generator: Adobe Illustrator 19.0.0, SVG Export Plug-In . SVG Version: 6.00 Build 0)  -->
<svg version="1.1" id="Layer_1" xmlns="http://www.w3.org/2000/svg" xmlns:xlink="http://www.w3.org/1999/xlink" x="0px" y="0px"
	 viewBox="0 0 512 512" style="enable-background:new 0 0 512 512;" xml:space="preserve">
<path style="fill:#D46366;" d="M430.611,90.072H211.655c-17.342,0-31.401,14.058-31.401,31.401l0,0
	c0,17.342,14.058,31.401,31.401,31.401h258.32"/>
<path style="fill:#4C1B27;" d="M469.977,168.021H211.655c-25.667,0-46.549-20.881-46.549-46.549s20.881-46.549,46.549-46.549
	h218.956c8.367,0,15.149,6.782,15.149,15.149s-6.782,15.149-15.149,15.149H211.655c-8.961,0-16.252,7.291-16.252,16.252
	s7.29,16.252,16.252,16.252h258.32c8.367,0,15.149,6.782,15.149,15.149S478.344,168.021,469.977,168.021z"/>
<path style="fill:#D46366;" d="M20.101,224.573h471.798c1.672,0,3.092,1.248,3.284,2.909c1.085,9.38,1.668,18.895,1.668,28.545
	c0,9.65-0.538,19.119-1.654,28.451c-0.198,1.654-1.618,2.895-3.284,2.895H20.1"/>
<g>
	<path style="fill:#4C1B27;" d="M491.913,302.521H20.1c-8.367,0-15.149-6.782-15.149-15.149c0-8.367,6.782-15.149,15.149-15.149
		h461.042c0.373-5.314,0.56-10.73,0.56-16.196c0-5.367-0.197-10.822-0.588-16.306H20.101c-8.367,0-15.149-6.782-15.149-15.149
		s6.782-15.149,15.149-15.149h471.798c9.379,0,17.261,7.017,18.333,16.323c1.172,10.145,1.768,20.334,1.768,30.281
		c0,10.301-0.594,20.48-1.763,30.251C509.132,295.536,501.255,302.521,491.913,302.521z"/>
	<path style="fill:#4C1B27;" d="M256.028,512c-70.836,0-136.755-28.28-185.613-79.63c-18.815-19.815-34.223-42.274-45.806-66.766
		C13.133,341.471,5.57,315.793,2.147,289.316C0.721,278.154,0,266.964,0,256.028c0-10.95,0.721-22.173,2.142-33.362
		c3.489-26.544,11.048-52.188,22.473-76.284c11.603-24.468,27.027-46.924,45.844-66.74C119.328,28.28,185.227,0,256.028,0
		s136.7,28.28,185.558,79.63c14.064,14.823,26.323,31.26,36.451,48.87c3.213,5.538,6.363,11.599,9.333,17.967
		c11.409,23.932,18.989,49.584,22.479,76.132c1.43,11.256,2.15,22.481,2.15,33.429c0,11.383-0.724,22.601-2.153,33.343
		c-3.413,26.454-10.966,52.112-22.44,76.202c-2.722,5.873-5.866,11.875-9.607,18.344c-4.189,7.243-13.457,9.718-20.698,5.526
		c-7.243-4.189-9.716-13.457-5.528-20.698c3.295-5.696,6.035-10.922,8.376-15.981c0.024-0.051,0.048-0.103,0.073-0.155
		c10.113-21.216,16.77-43.818,19.784-67.176c1.262-9.48,1.897-19.354,1.897-29.407c0-9.677-0.639-19.618-1.9-29.546
		c-3.066-23.325-9.744-45.921-19.834-67.091c-2.647-5.667-5.375-10.924-8.167-15.737c-8.964-15.582-19.78-30.086-32.181-43.155
		c-43.068-45.263-101.173-70.2-163.594-70.2S135.502,55.234,92.42,100.514c-16.596,17.477-30.202,37.28-40.429,58.849
		c-10.071,21.239-16.733,43.842-19.803,67.185c-1.251,9.862-1.891,19.803-1.891,29.48c0,9.657,0.639,19.559,1.898,29.427
		c3.012,23.285,9.67,45.89,19.787,67.169c10.219,21.608,23.805,41.406,40.391,58.875c43.073,45.269,101.196,70.206,163.653,70.206
		c39.991,0,79.248-10.577,113.526-30.589c7.226-4.22,16.502-1.781,20.721,5.445c4.217,7.226,1.78,16.503-5.445,20.721
		C345.921,499.994,301.382,512,256.028,512z"/>
</g>
<path style="fill:#D46366;" d="M300.345,359.128H43.879c-2.6,0-4.272,2.743-3.106,5.066c10.665,21.231,24.421,40.678,40.616,57.734
	h218.956c17.342,0,31.401-14.058,31.401-31.401l0,0C331.745,373.186,317.687,359.128,300.345,359.128z"/>
<path style="fill:#4C1B27;" d="M300.345,437.077H81.39c-4.154,0-8.124-1.706-10.984-4.717
	c-17.388-18.31-31.911-38.957-43.168-61.365c-2.927-5.828-2.633-12.619,0.789-18.167c3.416-5.54,9.342-8.848,15.852-8.848h256.466
	c25.667,0,46.549,20.881,46.549,46.549S326.013,437.077,300.345,437.077z M88.019,406.779h212.325
	c8.961,0,16.252-7.291,16.252-16.252s-7.291-16.252-16.252-16.252H63.724C70.807,385.784,78.933,396.656,88.019,406.779z"/>
<g>
</g>
<g>
</g>
<g>
</g>
<g>
</g>
<g>
</g>
<g>
</g>
<g>
</g>
<g>
</g>
<g>
</g>
<g>
</g>
<g>
</g>
<g>
</g>
<g>
</g>
<g>
</g>
<g>
</g>
</svg>
