<?xml version="1.0" standalone="no"?>
<!DOCTYPE svg PUBLIC "-//W3C//DTD SVG 20010904//EN"
 "http://www.w3.org/TR/2001/REC-SVG-20010904/DTD/svg10.dtd">
<svg version="1.0" xmlns="http://www.w3.org/2000/svg"
 width="460.000000pt" height="460.000000pt" viewBox="0 0 460.000000 460.000000"
 preserveAspectRatio="xMidYMid meet">

<g transform="translate(0.000000,460.000000) scale(0.100000,-0.100000)"
fill="#000000" stroke="none">
<path d="M2187 4389 c-103 -9 -154 -20 -289 -61 -199 -60 -370 -171 -506 -327
-82 -95 -192 -266 -192 -301 0 -5 -9 -30 -21 -54 -20 -44 -37 -98 -66 -211
-20 -82 -29 -456 -13 -568 72 -503 351 -952 757 -1220 83 -55 218 -120 286
-139 42 -11 47 -15 47 -40 0 -15 8 -36 19 -47 18 -18 18 -20 -10 -71 -30 -55
-76 -120 -93 -132 -10 -7 46 -45 82 -54 17 -5 22 -13 22 -40 0 -57 37 -226 79
-364 63 -205 74 -303 47 -432 -8 -36 -28 -93 -44 -126 -32 -63 -29 -92 9 -92
26 0 61 75 90 191 30 118 22 249 -24 419 -72 258 -86 316 -92 371 l-7 56 76 6
c58 4 88 12 123 33 39 23 44 29 31 38 -21 16 -75 102 -88 142 -10 28 -8 36 9
53 12 12 21 33 21 49 0 25 6 29 68 51 246 87 493 284 688 547 45 60 82 121
175 288 6 10 19 42 29 70 10 28 28 78 40 111 62 167 91 352 92 580 0 313 -68
560 -215 774 -202 296 -514 469 -906 501 -64 5 -120 9 -126 8 -5 0 -50 -4 -98
-9z m298 -69 c120 -14 213 -40 337 -96 232 -104 411 -280 536 -529 30 -61 80
-229 98 -335 34 -196 17 -481 -42 -700 -119 -448 -442 -852 -834 -1043 -209
-102 -331 -101 -545 3 -418 202 -740 628 -848 1120 -30 139 -31 154 -31 370 0
211 1 232 27 343 56 235 160 421 324 578 107 103 257 190 421 245 141 48 366
65 557 44z m-105 -2850 c0 -27 -95 -41 -118 -18 -22 22 -12 28 53 28 36 0 65
-4 65 -10z m-25 -137 c10 -27 26 -62 36 -79 19 -32 19 -32 -3 -38 -29 -7 -136
-8 -164 0 -20 5 -20 8 19 85 36 69 44 79 68 79 22 0 29 -7 44 -47z"/>
<path d="M1762 3702 c-55 -51 -49 -121 14 -171 47 -37 111 -23 144 31 29 48
26 91 -11 133 -27 30 -37 35 -74 35 -33 0 -50 -6 -73 -28z"/>
<path d="M2634 3696 c-38 -38 -44 -77 -19 -126 17 -32 61 -60 95 -60 97 0 143
132 69 194 -46 39 -101 36 -145 -8z"/>
<path d="M1704 2650 c-26 -10 -54 -48 -54 -72 0 -41 46 -135 86 -178 54 -58
224 -152 314 -174 154 -37 379 -45 505 -17 62 13 120 38 160 66 17 12 68 41
115 66 156 80 204 152 144 213 -36 35 -69 33 -129 -8 -28 -19 -81 -51 -118
-70 -38 -20 -80 -44 -95 -54 -76 -51 -159 -67 -314 -59 -187 10 -238 22 -356
85 -96 52 -105 60 -128 107 -30 61 -43 78 -71 93 -25 14 -30 14 -59 2z"/>
</g>
</svg>
